<svg xmlns="http://www.w3.org/2000/svg" viewBox="0 0 24 24">
  <path
    d="M16.4 7.6c-0.3-0.3-0.8-0.3-1.1 0L12 10.9 8.7 7.6c-0.3-0.3-0.8-0.3-1.1 0 -0.3 0.3-0.3 0.8 0 1.1l3.3 3.3 -3.3 3.3c-0.3 0.3-0.3 0.8 0 1.1 0.2 0.1 0.3 0.2 0.5 0.2 0.2 0 0.4-0.1 0.5-0.2l3.3-3.3 3.3 3.3c0.1 0.2 0.4 0.2 0.5 0.2s0.4-0.1 0.5-0.2c0.3-0.3 0.3-0.8 0-1.1L13.1 12l3.3-3.3C16.7 8.4 16.7 7.9 16.4 7.6L16.4 7.6zM12 1C5.9 1 1 5.9 1 12s4.9 11 11 11 11-4.9 11-11S18.1 1 12 1zM18.7 18.7c-0.9 0.9-1.9 1.6-3 2 -1.2 0.5-2.4 0.7-3.7 0.7s-2.5-0.2-3.7-0.7c-1.1-0.5-2.1-1.2-3-2 -0.9-0.9-1.6-1.9-2-3 -0.5-1.2-0.7-2.4-0.7-3.7s0.2-2.5 0.7-3.7c0.5-1.1 1.2-2.1 2-3 0.9-0.9 1.9-1.6 3-2 1.2-0.5 2.4-0.7 3.7-0.7s2.5 0.2 3.7 0.7c1.1 0.5 2.1 1.2 3 2 0.9 0.9 1.6 1.9 2 3 0.5 1.2 0.7 2.4 0.7 3.7s-0.2 2.5-0.7 3.7C20.2 16.8 19.6 17.8 18.7 18.7z"
    fill="currentColor"
  />
</svg>
